<?xml version="1.0" encoding="UTF-8"?>
<svg xmlns="http://www.w3.org/2000/svg" version="1.1" viewBox="0 0 722.8 110.1">
  <defs>
    <style>
      .cls-1 {
        fill: #01382e;
      }
    </style>
  </defs>
  <!-- Generator: Adobe Illustrator 28.6.0, SVG Export Plug-In . SVG Version: 1.2.0 Build 709)  -->
  <g>
    <g id="Layer_1">
      <path class="cls-1" d="M27.9,86.4c-9.5,0-16.5-2.2-21-6.7-4.6-4.5-6.8-10.8-6.8-18.8h11.9c0,6,1.3,10.6,4,13.8,2.7,3.2,6.7,4.8,12,4.8s8-1.1,10.8-3.2c2.7-2.1,4.1-5.1,4.1-9s-.8-5.5-2.5-7.7c-1.7-2.2-4.5-4.1-8.4-5.6l-9.7-3.9c-6.9-2.8-11.7-5.9-14.6-9.3-2.9-3.5-4.3-7.4-4.3-11.9s.6-5.5,1.8-7.9c1.2-2.4,2.8-4.4,4.9-6.1,2.1-1.7,4.7-3,7.6-4,3-1,6.3-1.4,9.9-1.4s7,.5,10,1.4c3,.9,5.5,2.2,7.6,3.9,2.1,1.7,3.8,3.7,4.9,6.1,1.2,2.4,1.8,5.1,1.8,7.9s-.2,3-.5,4.8l-11.8-1.2c0-.5.1-1,.2-1.4,0-.5,0-.9,0-1.4,0-4.2-1.1-7.4-3.2-9.7-2.2-2.3-5.1-3.4-9-3.4s-6.6,1-8.8,2.9c-2.3,1.9-3.4,4.5-3.4,7.7s.8,4.7,2.4,6.8c1.6,2,4.6,3.9,8.8,5.6l9.9,3.9c6.6,2.6,11.4,5.7,14.3,9.4,2.9,3.6,4.3,7.9,4.3,12.7s-2.4,11.6-7.1,15.4c-4.7,3.7-11.3,5.6-19.8,5.6h0ZM61.9,109.1h11.7v-33.3c1.6,3.1,4,5.7,7.1,7.6,3.1,2,6.6,3,10.4,3s6-.6,8.6-1.9c2.6-1.3,4.9-3,6.8-5.3,1.9-2.3,3.4-4.9,4.5-8,1.1-3.1,1.6-6.4,1.6-9.9s-.6-6.8-1.6-9.9c-1.1-3-2.6-5.7-4.5-7.9-1.9-2.3-4.2-4-6.8-5.3-2.6-1.3-5.5-1.9-8.6-1.9s-7.3,1-10.4,3c-3.1,2-5.5,4.5-7.1,7.6v-9.2h-11.7v71.4h0ZM87,77.7c-2,0-3.9-.4-5.7-1.2-1.7-.8-3.2-2-4.5-3.4-1.2-1.5-2.2-3.2-2.9-5.2-.7-2-1.1-4.2-1.1-6.5s.4-4.5,1.1-6.5c.7-2,1.7-3.7,2.9-5.2,1.2-1.5,2.7-2.6,4.5-3.4,1.7-.8,3.7-1.2,5.7-1.2s3.8.4,5.5,1.2c1.7.8,3.1,2,4.3,3.4,1.2,1.5,2.1,3.2,2.8,5.2.7,2,1,4.1,1,6.5s-.3,4.5-1,6.5c-.7,2-1.6,3.8-2.8,5.2-1.2,1.5-2.6,2.6-4.3,3.4-1.7.8-3.5,1.2-5.5,1.2h0ZM144.5,50.3l11.8,1.2c.3-1.8.3-3.7,0-5.5-.2-1.8-.8-3.4-1.6-4.9-.8-1.4-2-2.6-3.4-3.5-1.5-.9-3.3-1.3-5.5-1.3-3.7,0-6.7,1.2-9,3.6-2.3,2.4-4.1,5.4-5.3,9v-11.2h-11.7v47.3h11.7v-15.7c0-4,.3-7.4,1-10.4.7-3,1.5-5.4,2.5-7.4,1-1.9,2.2-3.4,3.4-4.3,1.2-.9,2.4-1.4,3.5-1.4s1.7.4,2.2,1.1c.5.7.6,1.8.4,3.4h0ZM172.8,29.4c1.3-1.3,1.9-2.9,1.9-5s-.6-3.7-1.9-5c-1.3-1.3-3-1.9-5.1-1.9s-3.8.6-5.1,1.9c-1.3,1.3-1.9,2.9-1.9,5s.6,3.7,1.9,5c1.3,1.3,3,1.9,5.1,1.9s3.8-.6,5.1-1.9ZM161.9,85h11.7v-47.4h-11.7v47.4h0ZM194.7,85v-7c0-10.2,1.3-18.2,4-23.9,2.6-5.7,6.4-8.5,11.2-8.5s4.2.9,5.3,2.5c1.1,1.7,1.6,4.4,1.6,8.2v28.7h11.7v-28.7c0-6.4-1.3-11.4-4-14.8-2.7-3.5-6.5-5.2-11.6-5.2-8.6,0-14.7,5.3-18.2,15.8v-14.4h-11.7v47.4h11.7ZM259.6,73.7c3.4,0,6.5-.5,9.3-1.4,2.8-1,5.3-2.3,7.3-3.9,2-1.7,3.6-3.6,4.8-5.9,1.1-2.3,1.7-4.8,1.7-7.5s-.7-5.7-2.2-8.2c-1.4-2.5-3.6-4.6-6.4-6.3,1.7-.1,3.3-.5,4.8-1,1.5-.5,2.8-1.2,3.9-2,1.1-.8,2-1.7,2.6-2.7.6-1,1-2.1,1-3.2l-11.9-1.6c0,4.9-2,7.4-6,7.4s-4.9-1.1-8.8-1.1-6.4.5-9.2,1.4c-2.8.9-5.3,2.2-7.3,3.9-2,1.7-3.6,3.6-4.8,5.9-1.1,2.3-1.7,4.8-1.7,7.5s1,6.8,2.9,9.6c1.9,2.8,4.6,5,8,6.6-3.7.9-6.4,2.1-8.1,3.7-1.7,1.5-2.6,3.3-2.6,5.2s.8,2.9,2.3,4c1.5,1.1,4,1.9,7.2,2.3-4.2,1-7.4,2.5-9.8,4.7-2.4,2.1-3.5,4.6-3.5,7.4s2.2,6.4,6.5,8.5c4.3,2.1,10.2,3.1,17.6,3.1s16.5-1.5,21.6-4.6c5.1-3.1,7.6-7.2,7.6-12.4s-2.1-7.5-6.3-9.9c-4.2-2.3-10.3-3.5-18.3-3.5h-4.2c-3.7,0-6.3-.2-7.7-.7-1.4-.5-2.1-1.2-2.1-2.1s.1-.7.3-1.1c.2-.4.7-.7,1.5-1.1.8-.3,2-.6,3.5-.8,1.5-.2,3.7-.3,6.4-.3h0ZM258.4,103.7c-4.5,0-7.8-.6-10.1-1.9-2.3-1.2-3.4-3.1-3.4-5.2s1.1-4,3.4-5.3c2.3-1.3,5.5-2,9.6-2h4.1c4,0,7.1.5,9.3,1.4,2.1.9,3.2,2.5,3.2,4.6s-1.4,4.5-4.2,6c-2.8,1.6-6.8,2.3-11.9,2.3h0ZM259.7,67.4c-3.8,0-6.7-1.2-8.7-3.6-2-2.4-3-5.4-3-8.9s1-6.5,3-8.8c2-2.4,4.9-3.5,8.7-3.5s6.7,1.2,8.6,3.5c1.9,2.4,2.9,5.3,2.9,8.8s-1,6.5-2.9,8.9c-1.9,2.4-4.8,3.6-8.6,3.6h0ZM325.2,85v-33.9h33.4v33.9h11.9V11.9h-11.9v32.4h-33.4V11.9h-11.9v73.1h11.9ZM390.5,61.8h34.1c.2-3.3,0-6.5-.9-9.5-.8-3-2.1-5.8-4-8.2-1.9-2.4-4.3-4.3-7.2-5.7-2.9-1.4-6.4-2.1-10.4-2.1s-6.6.6-9.5,1.6c-2.9,1.1-5.3,2.7-7.4,4.8-2,2.1-3.6,4.8-4.8,7.9-1.1,3.1-1.7,6.7-1.7,10.8s.5,7.2,1.6,10.2c1.1,3.1,2.7,5.7,4.7,7.9,2,2.2,4.5,3.9,7.4,5.1,2.9,1.2,6,1.8,9.5,1.8,5.5,0,10.2-1.5,14.1-4.6,3.9-3,6.5-7.2,7.8-12.4l-11.1-1.2c-.8,4-2,7-3.8,8.8-1.7,1.9-4.1,2.8-7,2.8s-2.7-.3-4.1-.8c-1.4-.6-2.6-1.5-3.7-3-1.1-1.4-2-3.3-2.6-5.6-.7-2.3-1-5.2-1.1-8.7h0ZM402.2,42.8c3.4,0,5.9,1.1,7.5,3.3,1.6,2.2,2.6,5.5,3,9.8h-21.9c.6-4.7,1.8-8,3.8-10.1,1.9-2,4.5-3.1,7.7-3.1h0ZM473.6,85v-29.1c0-3.3-.5-6.2-1.5-8.6-1-2.4-2.4-4.5-4.2-6.1-1.8-1.6-4-2.8-6.5-3.7-2.5-.8-5.2-1.2-8.2-1.2-6,0-10.8,1.4-14.4,4.3-3.6,2.9-5.6,6.6-6.1,11.3l11.2,1.2c.3-3.1,1.1-5.6,2.5-7.5,1.4-1.9,3.8-2.8,6.7-2.8s5.2,1,6.6,3c1.4,2,2.2,4.9,2.4,8.9-10.2.9-18.1,2.9-23.6,6-5.5,3.1-8.3,7.5-8.3,13.2s1.3,7,3.9,9.2c2.6,2.2,6.1,3.3,10.4,3.3s7.5-1,10.4-2.9c2.9-1.9,5.3-4.8,7.2-8.5v10.1h11.5ZM462,60.2c-.1,2.6-.6,5.1-1.3,7.4-.7,2.3-1.7,4.4-2.9,6.1-1.2,1.8-2.6,3.2-4.2,4.2-1.6,1.1-3.3,1.6-5.2,1.6s-3.6-.6-4.7-1.9c-1.2-1.2-1.8-3-1.8-5.2,0-3.6,1.7-6.5,5.1-8.6,3.4-2.1,8.4-3.4,15-3.7h0ZM494.4,11.9h-11.7v73.1h11.7V11.9ZM522.7,86.4c4.2,0,7.6-1,10.2-3.1,2.5-2.1,4.1-5.1,4.6-9.2l-10.6-1.2c-.1,2.5-.5,4.3-1,5.3-.5,1.1-1.3,1.6-2.5,1.6s-2-.5-2.5-1.6c-.5-1.1-.7-2.9-.7-5.3v-29.1h14.9v-6.1h-14.9v-15.9h-11.7v15.9h-7.7v6.1h7.7v27c0,10.4,4.7,15.6,14.2,15.6h0ZM554.3,85v-7c0-10.2,1.3-18.2,4-23.9,2.6-5.7,6.4-8.5,11.2-8.5s4.2.9,5.3,2.5c1.1,1.7,1.6,4.4,1.6,8.2v28.7h11.7v-28.7c0-6.4-1.3-11.4-4-14.8-2.7-3.5-6.5-5.2-11.6-5.2-8.6,0-14.7,5.3-18.2,15.8V11.9h-11.7v73.1h11.7ZM654.7,25.1c-7.1,6-13.1,12.5-18.1,19,11.3-7.8,24.6-11.9,37.9-11,10.1.7,19.3,4.4,25.9,8.3,0,0,2.5-4.3,1.1-23.9-.8-10.5,0-17.5,0-17.5-9.7.6-33.8,14.1-46.7,25.1h0ZM674.1,39.8c-15.2-1.1-30.5,5.3-42.1,16.8,7.1-4,16.5-7.1,27.9-6.2,15.4,1.2,26.1,9.3,32.4,15.9,3.5-5.2,5.9-11.2,6.9-17.6-6.2-4.2-14.7-8.2-25.1-8.9h0ZM659.4,57.1c-20.7-1.6-33.6,11.8-37.1,16-2.5,3-4.6,6.5-6.2,10.2-.2.6-.4,1.2-.6,1.8,0,0,16.5,3.6,41.8.8,25.4-2.8,30.7-14.3,30.7-14.3-5.3-5.7-14.8-13.3-28.7-14.4h0ZM650.4,19.9c9.6-8.1,20.4-14.8,31.9-19.9l-25.1.2c-23.4.1-42.2,19.2-42.1,42.6l.2,24.1c6.5-14.4,17.3-31.9,35.1-47h0ZM705.5,77.5h2.9v7.6h1.2v-7.6h2.9v-1.1h-7v1.1ZM720.8,76.4l-2.4,7.3h-.1l-2.4-7.3h-2v8.7h1.1v-7.3h.1l2.5,7.3h1.5l2.5-7.3h.1v7.3h1.2v-8.7h-2Z"/>
    </g>
  </g>
</svg>